<?xml version="1.0" encoding="UTF-8" standalone="no" ?>
<!DOCTYPE svg PUBLIC "-//W3C//DTD SVG 1.1//EN" "http://www.w3.org/Graphics/SVG/1.1/DTD/svg11.dtd">
<svg xmlns="http://www.w3.org/2000/svg" xmlns:xlink="http://www.w3.org/1999/xlink" version="1.1" width="1080" height="1080" viewBox="0 0 1080 1080" xml:space="preserve">
<desc>Created with Fabric.js 5.2.4</desc>
<defs>
</defs>
<g transform="matrix(1 0 0 1 540 540)" id="6a5876c8-99d3-4c3b-9f51-ca24eefaef1c"  >
<rect style="stroke: none; stroke-width: 1; stroke-dasharray: none; stroke-linecap: butt; stroke-dashoffset: 0; stroke-linejoin: miter; stroke-miterlimit: 4; fill: rgb(255,255,255); fill-rule: nonzero; opacity: 1; visibility: hidden;" vector-effect="non-scaling-stroke"  x="-540" y="-540" rx="0" ry="0" width="1080" height="1080" />
</g>
<g transform="matrix(1 0 0 1 540 540)" id="7cf638b9-b32c-4dab-adf0-a33b6257801f"  >
</g>
<g transform="matrix(1 0 0 1 540 540)"  >
<g style="" vector-effect="non-scaling-stroke"   >
		<g transform="matrix(1 0 0 1 0 0)"  >
<rect style="stroke: none; stroke-width: 1; stroke-dasharray: none; stroke-linecap: butt; stroke-dashoffset: 0; stroke-linejoin: miter; stroke-miterlimit: 4; fill: rgb(255,255,255); fill-rule: nonzero; opacity: 1; visibility: hidden;" vector-effect="non-scaling-stroke"  x="-540" y="-540" rx="0" ry="0" width="1080" height="1080" />
</g>
		<g transform="matrix(1 0 0 1 15.73 -53.08)"  >
<path style="stroke: none; stroke-width: 1; stroke-dasharray: none; stroke-linecap: butt; stroke-dashoffset: 0; stroke-linejoin: miter; stroke-miterlimit: 4; fill: rgb(241,167,181); fill-rule: nonzero; opacity: 1;" vector-effect="non-scaling-stroke"  transform=" translate(-143.78, -74.93)" d="M 124.7 7.9 C 121.10000000000001 9.200000000000001 118.9 11.100000000000001 117.10000000000001 14.7 C 115.30000000000001 18.2 115.00000000000001 21.7 116.30000000000001 25.299999999999997 C 117.20000000000002 27.999999999999996 119.80000000000001 31.199999999999996 122.30000000000001 32.4 L 124.20000000000002 33.3 L 124.20000000000002 48.8 L 124.20000000000002 64.3 L 122.10000000000002 64.3 C 121.00000000000003 64.3 118.70000000000002 63.8 117.10000000000002 63.199999999999996 C 112.80000000000003 61.4 108.50000000000003 60.8 105.10000000000002 61.4 C 101.70000000000002 62 83.80000000000003 71.2 79.80000000000003 74.4 C 76.30000000000003 77.30000000000001 74.80000000000003 80 74.70000000000003 83.60000000000001 C 74.70000000000003 86.80000000000001 75.70000000000003 88.10000000000001 79.20000000000003 89.60000000000001 C 83.60000000000004 91.60000000000001 89.30000000000003 92.30000000000001 99.50000000000003 92.2 C 109.40000000000003 92.2 111.50000000000003 91.9 116.70000000000003 90 C 118.30000000000003 89.4 120.60000000000004 88.7 121.90000000000003 88.6 L 124.10000000000004 88.3 L 124.10000000000004 106.5 L 124.10000000000004 124.7 L 119.80000000000004 124.5 C 117.50000000000004 124.4 115.50000000000004 124.3 115.50000000000004 124.4 C 115.50000000000004 124.9 119.80000000000004 142 120.00000000000004 142.20000000000002 C 120.50000000000004 142.70000000000002 140.00000000000006 142.8 151.70000000000005 142.3 C 171.70000000000005 141.4 180.70000000000005 140.10000000000002 190.40000000000003 136.60000000000002 C 201.80000000000004 132.40000000000003 208.80000000000004 125.50000000000003 211.30000000000004 115.80000000000003 C 216.40000000000003 96.00000000000003 208.90000000000003 80.80000000000003 190.30000000000004 73.50000000000003 C 176.60000000000005 68.20000000000003 160.40000000000003 65.10000000000002 142.40000000000003 64.60000000000002 L 133.20000000000005 64.30000000000003 L 133.20000000000005 48.9 L 133.20000000000005 33.4 L 134.30000000000004 33.1 C 136.20000000000005 32.6 139.90000000000003 28.900000000000002 141.10000000000005 26.400000000000002 C 142.40000000000006 23.500000000000004 142.60000000000005 19.300000000000004 141.50000000000006 16 C 139.4 9.5 131.3 5.6 124.7 7.9 z M 106.3 70.8 C 107 71.39999999999999 107.5 72.5 107.5 73.2 C 107.5 74.8 105.5 76.8 103.9 76.8 C 102.5 76.8 100.30000000000001 74.89999999999999 100.30000000000001 73.7 C 100.30000000000001 72.5 101.60000000000001 70.2 102.50000000000001 70 C 104.4 69.5 105.2 69.7 106.3 70.8 z M 159.8 88.8 C 177.10000000000002 90 185.60000000000002 92.2 189.8 96.6 C 192.4 99.3 193.10000000000002 101.3 192.9 105.1 C 192.1 115.19999999999999 184.3 120.19999999999999 164.8 123.1 C 158.4 124 135.20000000000002 125.3 133.9 124.8 C 133.3 124.6 133.20000000000002 121.5 133.20000000000002 106.4 L 133.20000000000002 88.3 L 134.50000000000003 88.1 C 136.5 87.8 152.1 88.2 159.8 88.8 z" stroke-linecap="round" />
</g>
		<g transform="matrix(1 0 0 1 39 -18.63)"  >
<path style="stroke: none; stroke-width: 1; stroke-dasharray: none; stroke-linecap: butt; stroke-dashoffset: 0; stroke-linejoin: miter; stroke-miterlimit: 4; fill: rgb(241,167,181); fill-rule: nonzero; opacity: 1;" vector-effect="non-scaling-stroke"  transform=" translate(-167.05, -109.39)" d="M 155.9 100.8 C 155.8 101.1 154.8 104.3 153.8 107.89999999999999 C 152.70000000000002 111.39999999999999 151.5 115.3 151.20000000000002 116.39999999999999 L 150.50000000000003 118.49999999999999 L 155.70000000000002 118.19999999999999 C 161.9 117.79999999999998 171.60000000000002 116.19999999999999 176.10000000000002 114.79999999999998 L 179.40000000000003 113.79999999999998 L 181.50000000000003 107.19999999999999 C 182.60000000000002 103.49999999999999 183.60000000000002 100.49999999999999 183.60000000000002 100.39999999999999 C 183.60000000000002 100.39999999999999 177.50000000000003 100.3 170.00000000000003 100.3 C 159.3 100.2 156.1 100.4 155.9 100.8 z" stroke-linecap="round" />
</g>
		<g transform="matrix(1 0 0 1 -66.33 -81.9)"  >
<path style="stroke: none; stroke-width: 1; stroke-dasharray: none; stroke-linecap: butt; stroke-dashoffset: 0; stroke-linejoin: miter; stroke-miterlimit: 4; fill: rgb(241,167,181); fill-rule: nonzero; opacity: 1;" vector-effect="non-scaling-stroke"  transform=" translate(-61.71, -46.12)" d="M 13.8 30.1 C 10.200000000000001 32 8.9 36.4 10.8 40 C 12.200000000000001 42.7 15 43.8 20.4 43.8 L 24.9 43.8 L 24.799999999999997 46.199999999999996 C 24.699999999999996 47.99999999999999 24.799999999999997 48.99999999999999 25.599999999999998 50.199999999999996 C 27.2 52.8 28.999999999999996 53.4 35.4 53.4 L 40.9 53.4 L 40.9 55.9 C 40.9 58.8 42 61 44.1 62.3 C 45.300000000000004 63.099999999999994 47 63.199999999999996 62.1 63.3 C 73.6 63.4 79 63.3 79.4 62.9 C 79.7 62.6 84.30000000000001 60.199999999999996 89.4 57.6 C 100.30000000000001 52.1 103.30000000000001 51.2 109.60000000000001 51.6 L 113.50000000000001 51.9 L 113.50000000000001 45.3 L 113.50000000000001 38.699999999999996 L 111.70000000000002 36.8 C 110.70000000000002 35.8 109.20000000000002 33.599999999999994 108.40000000000002 31.9 L 106.80000000000003 28.9 L 61.5 28.9 L 15.9 28.9 L 13.8 30.1 z" stroke-linecap="round" />
</g>
		<g transform="matrix(1 0 0 1 66.23 -81.92)"  >
<path style="stroke: none; stroke-width: 1; stroke-dasharray: none; stroke-linecap: butt; stroke-dashoffset: 0; stroke-linejoin: miter; stroke-miterlimit: 4; fill: rgb(241,167,181); fill-rule: nonzero; opacity: 1;" vector-effect="non-scaling-stroke"  transform=" translate(-194.28, -46.1)" d="M 147.8 31.5 C 147.10000000000002 32.9 145.60000000000002 35 144.5 36.2 L 142.4 38.400000000000006 L 142.4 46.50000000000001 L 142.4 54.60000000000001 L 148 54.900000000000006 C 160.8 55.7 174 58.00000000000001 185.4 61.400000000000006 L 191.8 63.300000000000004 L 201.10000000000002 63.2 C 210.00000000000003 63.1 210.50000000000003 63 212.00000000000003 62 C 214.10000000000002 60.5 215.00000000000003 58.6 215.00000000000003 55.7 L 215.00000000000003 53.400000000000006 L 221.30000000000004 53.2 L 227.50000000000003 53.1 L 229.50000000000003 51 C 231.30000000000004 49 231.40000000000003 48.8 231.20000000000002 46.3 L 231.10000000000002 43.699999999999996 L 235.70000000000002 43.699999999999996 C 239.50000000000003 43.699999999999996 240.60000000000002 43.49999999999999 242.3 42.599999999999994 C 247.5 39.89999999999999 247.4 32.599999999999994 242.3 29.899999999999995 L 240.20000000000002 28.899999999999995 L 194.70000000000002 28.899999999999995 L 149 28.899999999999995 L 147.8 31.5 z" stroke-linecap="round" />
</g>
		<g transform="matrix(1 0 0 1 -4.04 36.28)"  >
<path style="stroke: none; stroke-width: 1; stroke-dasharray: none; stroke-linecap: butt; stroke-dashoffset: 0; stroke-linejoin: miter; stroke-miterlimit: 4; fill: rgb(241,167,181); fill-rule: nonzero; opacity: 1;" vector-effect="non-scaling-stroke"  transform=" translate(-124.01, -164.3)" d="M 73.1 100.5 C 73.1 100.9 81.69999999999999 129.4 82 129.8 C 82.1 130 80.6 130.9 78.6 131.9 C 74 134.1 70.1 137.9 67.89999999999999 142.4 C 66.49999999999999 145.4 66.3 146.20000000000002 66.1 150.8 C 65.89999999999999 155.4 66 156.3 67.19999999999999 159.70000000000002 C 68.69999999999999 164.10000000000002 71.89999999999999 169.3 74.6 171.4 C 77.5 173.6 82.19999999999999 175.70000000000002 87.39999999999999 176.8 C 91.6 177.70000000000002 93.49999999999999 177.8 105.5 177.8 C 117.4 177.8 120.1 177.70000000000002 130.1 176.4 C 144.29999999999998 174.6 159 174.4 163.7 175.8 C 172.6 178.60000000000002 170.5 186.10000000000002 160.1 188.9 C 158.29999999999998 189.4 156.79999999999998 189.6 156.6 189.5 C 156.5 189.3 156.9 187.4 157.6 185.2 C 158.29999999999998 183.1 158.7 181.1 158.4 180.89999999999998 C 157.3 179.79999999999998 135.3 180.09999999999997 132.20000000000002 181.2 C 131.8 181.29999999999998 131.00000000000003 183.2 130.3 185.39999999999998 C 129.60000000000002 187.49999999999997 129 189.59999999999997 128.8 189.99999999999997 C 128.70000000000002 190.39999999999998 127.9 188.79999999999998 127.20000000000002 186.39999999999998 L 125.90000000000002 182.09999999999997 L 124.30000000000003 182.09999999999997 C 123.40000000000002 182.09999999999997 119.70000000000003 182.49999999999997 116.00000000000003 182.89999999999998 C 112.30000000000003 183.29999999999998 106.90000000000003 183.89999999999998 104.00000000000003 183.99999999999997 L 98.60000000000002 184.39999999999998 L 100.20000000000002 189.7 C 101.10000000000002 192.6 101.80000000000001 195.1 101.80000000000001 195.2 C 101.80000000000001 195.29999999999998 100.4 196.2 98.60000000000001 197.1 C 90.7 201.2 88.00000000000001 206.5 90.2 213.79999999999998 C 90.8 215.89999999999998 91.60000000000001 216.99999999999997 94.10000000000001 219.49999999999997 C 96.80000000000001 222.19999999999996 97.9 222.89999999999998 100.9 223.89999999999998 C 111 227.49999999999997 128.6 229.09999999999997 147.2 228.09999999999997 C 156.1 227.59999999999997 157.6 227.39999999999998 158.39999999999998 226.59999999999997 C 159.49999999999997 225.49999999999997 159.49999999999997 223.49999999999997 158.39999999999998 222.29999999999995 C 157.49999999999997 221.39999999999995 157.09999999999997 221.39999999999995 148.7 221.69999999999996 C 133.39999999999998 222.19999999999996 116.69999999999999 220.69999999999996 108.69999999999999 217.89999999999995 C 104.6 216.49999999999994 101.1 214.59999999999994 100.39999999999999 213.29999999999995 C 99.8 212.19999999999996 99.8 210.09999999999997 100.39999999999999 208.99999999999994 C 100.8 208.19999999999993 103.99999999999999 206.59999999999994 105.1 206.59999999999994 C 105.3 206.59999999999994 105.69999999999999 207.59999999999994 106.1 208.79999999999993 C 106.6 210.59999999999994 107 211.09999999999994 108.39999999999999 211.69999999999993 C 113.8 213.99999999999994 124.39999999999999 215.49999999999994 138.7 215.99999999999994 C 149.1 216.39999999999995 147.79999999999998 217.09999999999994 150.1 209.29999999999995 C 151 206.39999999999995 151.79999999999998 203.89999999999995 152.1 203.59999999999997 C 152.29999999999998 203.39999999999998 155.79999999999998 202.49999999999997 159.79999999999998 201.59999999999997 C 168.29999999999998 199.79999999999995 172.6 197.89999999999998 176.2 194.29999999999995 C 185.2 185.49999999999994 183.39999999999998 169.09999999999997 173 164.39999999999995 C 167.3 161.89999999999995 164.5 161.49999999999994 149.3 161.49999999999994 C 138.5 161.49999999999994 133.8 161.69999999999993 127.80000000000001 162.49999999999994 C 117.20000000000002 163.79999999999995 98.4 163.79999999999995 93.20000000000002 162.59999999999994 C 88.80000000000001 161.59999999999994 86.20000000000002 160.09999999999994 84.70000000000002 157.99999999999994 C 83.10000000000002 155.59999999999994 83.30000000000001 153.99999999999994 85.40000000000002 151.59999999999994 C 86.40000000000002 150.49999999999994 87.50000000000001 149.79999999999993 87.70000000000002 149.89999999999995 C 88.00000000000001 150.09999999999994 88.50000000000001 151.19999999999996 88.70000000000002 152.39999999999995 C 89.10000000000002 153.89999999999995 89.60000000000002 154.69999999999996 90.30000000000001 154.99999999999994 C 93.00000000000001 155.99999999999994 101.20000000000002 156.99999999999994 109.20000000000002 157.29999999999995 L 118.00000000000001 157.59999999999997 L 117.80000000000001 156.49999999999997 C 117.70000000000002 155.89999999999998 113.80000000000001 142.89999999999998 109.30000000000001 127.79999999999997 L 101.00000000000001 100.19999999999996 L 87.1 100.19999999999996 C 79.4 100.2 73.1 100.4 73.1 100.5 z" stroke-linecap="round" />
</g>
		<g transform="matrix(1 0 0 1 26.11 23.11)"  >
<path style="stroke: none; stroke-width: 1; stroke-dasharray: none; stroke-linecap: butt; stroke-dashoffset: 0; stroke-linejoin: miter; stroke-miterlimit: 4; fill: rgb(241,167,181); fill-rule: nonzero; opacity: 1;" vector-effect="non-scaling-stroke"  transform=" translate(-154.15, -151.13)" d="M 162.4 147.5 C 160.20000000000002 147.7 154.5 148 149.8 148.2 L 141.3 148.5 L 140.3 151.8 C 139.70000000000002 153.60000000000002 139.3 155.10000000000002 139.4 155.20000000000002 C 139.5 155.20000000000002 145.70000000000002 155.20000000000002 153.1 155.10000000000002 L 166.6 154.90000000000003 L 167.6 151.60000000000002 C 168.1 149.70000000000002 168.7 147.90000000000003 168.79999999999998 147.60000000000002 C 169.2 146.9 168.9 146.9 162.4 147.5 z" stroke-linecap="round" />
</g>
		<g transform="matrix(1 0 0 1 -0.27 112.88)"  >
<path style="stroke: none; stroke-width: 1; stroke-dasharray: none; stroke-linecap: butt; stroke-dashoffset: 0; stroke-linejoin: miter; stroke-miterlimit: 4; fill: rgb(241,167,181); fill-rule: nonzero; opacity: 1;" vector-effect="non-scaling-stroke"  transform=" translate(-127.77, -240.89)" d="M 113.3 233.6 C 113.39999999999999 234 114.3 236.9 115.1 240 C 115.89999999999999 243.2 116.8 246.4 117.1 247.2 L 117.6 248.79999999999998 L 128 248.79999999999998 L 138.5 248.79999999999998 L 139.1 246.7 C 140.5 241.5 142.29999999999998 234.7 142.29999999999998 234.6 C 142.29999999999998 234.6 136.6 234.29999999999998 129.79999999999998 234 C 122.99999999999999 233.7 116.39999999999998 233.3 115.29999999999998 233.1 C 113.4 232.9 113.1 232.9 113.3 233.6 z" stroke-linecap="round" />
</g>
</g>
</g>
</svg>